Coordinates
version=1
nRows=16
nColumns=22
inDegrees=yes

Units are S.I. units (second, meters, Newtons, ...)
If the header above contains a line with 'inDegrees', this indicates whether rotational values are in degrees (yes) or radians (no).

endheader
time	pelvis_tilt	pelvis_list	pelvis_rotation	pelvis_tx	pelvis_ty	pelvis_tz	hip_flexion_r	hip_adduction_r	hip_rotation_r	knee_angle_r	ankle_angle_r	subtalar_angle_r	hip_flexion_l	hip_adduction_l	hip_rotation_l	knee_angle_l	ankle_angle_l	subtalar_angle_l	lumbar_extension	lumbar_bending	lumbar_rotation
      2.41000000	     -4.20867568	     -6.61206806	    -14.16945171	     -0.41898553	      0.96350572	      0.25322693	      5.39487099	     15.63642850	     -4.93794748	    -17.61004669	     12.20290550	     -5.18739346	     24.24489861	    -11.97922878	     10.41644258	    -42.99192306	     12.73854412	     -3.41946698	     -0.99302141	      7.46918380	     -6.73952137
      2.42000000	     -4.35325540	     -6.47309035	    -14.95857543	     -0.41250175	      0.96292223	      0.25652781	      4.81362582	     15.64403012	     -4.14775700	    -17.38419649	     12.45729639	     -5.16215859	     24.87809194	    -11.68694236	     11.04129954	    -41.44014804	     12.67880908	     -3.13221739	     -0.94630079	      7.37745203	     -6.54763540
      2.43000000	     -4.49844706	     -6.32372108	    -15.71759483	     -0.40602228	      0.96226548	      0.25975294	      4.27846972	     15.62008973	     -3.40660210	    -17.21598941	     12.72516445	     -5.13103481	     25.48684751	    -11.36976816	     11.71916092	    -39.86452181	     12.51318457	     -2.75753533	     -0.89751663	      7.28329415	     -6.39621949
      2.44000000	     -4.63603398	     -6.18012867	    -16.43714802	     -0.39953020	      0.96154389	      0.26292480	      3.76786840	     15.58414120	     -2.70961399	    -17.08977363	     13.02344315	     -5.06922535	     26.05770322	    -11.05034967	     12.43977287	    -38.26097333	     12.27992629	     -2.23034272	     -0.85757106	      7.19840408	     -6.28971121
      2.45000000	     -4.79345579	     -6.01652213	    -17.14869400	     -0.39306420	      0.96074047	      0.26606527	      3.33670472	     15.51830731	     -2.05690861	    -17.04098474	     13.29147883	     -5.05489074	     26.61425924	    -10.73045251	     13.15414832	    -36.61691878	     11.84482581	     -1.90224398	     -0.79370639	      7.10457357	     -6.18178045
      2.46000000	     -4.93739354	     -5.86144622	    -17.84643753	     -0.38655290	      0.95988757	      0.26924198	      2.90315741	     15.45076608	     -1.41569988	    -17.01582653	     13.60966452	     -5.00632406	     27.11046973	    -10.44241866	     13.84180352	    -34.93456622	     11.35799928	     -1.47717081	     -0.74043207	      7.01340346	     -6.08736161
      2.47000000	     -5.08804826	     -5.70246847	    -18.53551508	     -0.38004387	      0.95898088	      0.27239868	      2.52782671	     15.37053708	     -0.80571972	    -17.06884859	     13.88763292	     -4.98024710	     27.57106848	    -10.18046359	     14.48632627	    -33.20626072	     10.72352066	     -1.18758786	     -0.68213908	      6.92841279	     -6.00520648
      2.48000000	     -5.23621994	     -5.54768629	    -19.22108134	     -0.37348918	      0.95802992	      0.27558461	      2.16478547	     15.28834156	     -0.19811956	    -17.15230750	     14.18206907	     -4.94710755	     27.98233160	     -9.95929692	     15.06295747	    -31.43994234	     10.02311850	     -0.94793197	     -0.62439247	      6.84887190	     -5.92338799
      2.49000000	     -5.37881130	     -5.39159947	    -19.91028556	     -0.36688059	      0.95704561	      0.27880261	      1.81184883	     15.19775746	      0.41156224	    -17.26945186	     14.48423919	     -4.89745117	     28.34244203	     -9.77634911	     15.55011019	    -29.63852574	      9.27847010	     -0.77367147	     -0.56891592	      6.76802158	     -5.83117014
      2.50000000	     -5.51401219	     -5.24123902	    -20.60030349	     -0.36020642	      0.95603887	      0.28203767	      1.46163273	     15.10385114	      1.02239315	    -17.41334685	     14.78972431	     -4.82360987	     28.64826459	     -9.63299778	     15.95041658	    -27.80844423	      8.53824731	     -0.68422426	     -0.52017374	      6.69562963	     -5.73229461
      2.51000000	     -5.64487946	     -5.09526461	    -21.28797988	     -0.35346322	      0.95500533	      0.28528508	      1.11831415	     15.00589261	      1.63397450	    -17.58477258	     15.08393538	     -4.73758936	     28.90956200	     -9.52425193	     16.26420184	    -25.96131462	      7.84999453	     -0.65700971	     -0.47383653	      6.63121584	     -5.64076876
      2.52000000	     -5.76835518	     -4.95817563	    -21.97202867	     -0.34662676	      0.95395574	      0.28855010	      0.76559013	     14.90617072	      2.24434394	    -17.76527910	     15.37620394	     -4.62367252	     29.12026564	     -9.44825218	     16.50116207	    -24.10457699	      7.26843303	     -0.65748127	     -0.43216884	      6.57826758	     -5.55111728
      2.53000000	     -5.88705330	     -4.83152427	    -22.64739443	     -0.33968721	      0.95288831	      0.29183048	      0.40228494	     14.80523633	      2.84853338	    -17.94860920	     15.66304864	     -4.47589937	     29.28368737	     -9.39861793	     16.68812304	    -22.24892301	      6.83033432	     -0.63353724	     -0.39206787	      6.53853430	     -5.46760457
      2.54000000	     -6.00851267	     -4.71003060	    -23.31172705	     -0.33266208	      0.95179596	      0.29512105	      0.04573928	     14.70330980	      3.45449061	    -18.14455859	     15.92705112	     -4.31685431	     29.41184051	     -9.36604285	     16.85131091	    -20.40775594	      6.53705338	     -0.53285213	     -0.34529289	      6.51000300	     -5.41454588
      2.55000000	     -6.10358105	     -4.61295985	    -23.96470335	     -0.32548774	      0.95073286	      0.29844766	     -0.36872070	     14.59731115	      4.04052021	    -18.30926793	     16.20992830	     -3.98989658	     29.45428434	     -9.35341142	     17.04589507	    -18.58590212	      6.41132177	     -0.29496011	     -0.32461051	      6.49736033	     -5.35521858
      2.56000000	     -6.22322045	     -4.49878493	    -24.63662723	     -0.31824669	      0.94961062	      0.30183386	     -0.73734762	     14.47855715	      4.63733848	    -18.50685700	     16.45366023	     -3.78828945	     29.48383252	     -9.35374298	     17.25650207	    -16.81325844	      6.40510498	      0.01443058	     -0.26648263	      6.48047785	     -5.28283315
